<svg viewBox="0 0 128 128" xmlns="http://www.w3.org/2000/svg" xmlns:bx="https://boxy-svg.com">
  <path style="fill: rgb(66, 106, 142);"
    d="M 2.6 70.1 C 2.6 70.1 44.340476720317554 63.28142796654911 50.6 54.5 C 54.75174247818109 48.675558444498854 51.664307200435545 37.34193073284046 50.2 32.3 C 49.349260546158185 29.370717540220294 46.75655094765247 27.98979152876569 46.3 25.9 C 45.92208800645722 24.170166151695703 45.95414604245618 21.949639940895466 46.9 20.8 C 47.91231477972474 19.569580129946814 50.613902516945686 18.679093394911973 52.5 19 C 54.80432972569492 19.392065964734073 57.75503377928904 22.04589551797347 59.5 24.3 C 61.27647135483096 26.59480204005594 62.09652796968986 29.708359794216438 63 32.7 C 63.970132343722035 35.912370529515556 63.99350693125487 41.54592838003842 65 43 C 65.38389530500102 43.55461014623225 65.83617563567394 43.85968687601393 66.3 43.8 C 66.96975650307246 43.713812907572255 67.44150166568139 42.2387660645538 68.5 41.5 C 70.23070265195562 40.29207709106023 73.76160732162151 38.4327574321008 76.3 38.1 C 78.54833209675678 37.80526655651069 81.12802156242869 38.2046055447176 82.9 39.1 C 84.46884666285479 39.892750393189765 86.19451727298747 41.34964049491763 86.6 42.8 C 86.99814012121107 44.22409594955515 85.86353126803364 46.24151240128087 85.4 47.7 C 85.01133337521006 48.92292818496767 84.1 51 84.1 51 C 84.1 51 84.1 51 84.1 51 C 84.1 51 84.10000000000001 51.00000000000001 84.1 51 C 84.1 51 86.87433454047667 52.664187032320335 88 53.9 C 89.24742041014714 55.269481763845626 90.99157232696686 57.36547079501371 91.1 59 C 91.19391722523112 60.41578660868848 89.3 63.1 89.3 63.1 C 89.30000000000001 63.10000000000002 89.3 63.1 89.3 63.1 C 89.3 63.1 89.3 63.099999999999994 89.3 63.1 C 89.3 63.1 91.70038472535843 65.6542901776641 92.5 67 C 93.21134652491534 68.19715822848954 94.00309465096734 69.3400345238087 94 70.7 C 93.99618927078647 72.37465094583585 91.7 76.3 91.7 76.3 C 91.70000000000002 76.3 91.7 76.3 91.7 76.3 C 91.7 76.3 91.69999999999999 76.29999999999997 91.7 76.3 C 91.7 76.3 93.5464337159336 78.49717772403322 94 79.8 C 94.47107940478489 81.15312690529058 94.80177459299553 82.9440299615239 94.4 84.3 C 93.99015486233107 85.68320774081485 92.86493861515933 86.85124067792279 91.5 88 C 89.60279011866909 89.59672934219205 86.48844995321649 91.46133268069366 83.5 92.3 C 80.19383957543963 93.22782838724751 75.92689884080791 92.88139436916406 72.4 92.9 C 69.18993589966901 92.91693421623536 65.3514057502348 92.70557512810808 63.2 92.5 C 62.028715408227974 92.38807923378549 61.53708930102448 92.05641022381629 60.5 92.1 C 59.063145895353976 92.16039224275893 57.78513938387136 92.77067550890757 55.4 93.3 C 49.84701402160997 94.53235207842812 34.80934871027404 97.51872516370629 27.6 99.1 C 22.9933222446515 100.11041354860052 16.859076887165106 99.72321487985374 16.3 101.7 C 15.609679467953768 104.14083664914132 23.75761143765612 110.69701180017941 28.9 114.1 C 34.77145373780974 117.9854488616185 42.83002679240274 121.30269727985785 50.2 122.9 C 57.53274719433449 124.48923468372334 65.63054253117028 124.86829749219265 73 123.7 C 80.36350349236848 122.53264640575338 87.97634731753456 119.72120077802272 94.4 115.9 C 100.84851905849442 112.06400710600754 106.98991097226477 106.66168980862349 111.6 100.7 C 116.23581599386196 94.70504051028317 120.03920380845986 87.73500910970841 122.1 80 C 124.41295826717139 71.3185237140916 125.6053326964292 60.190055035859885 123.6 50.8 C 121.5131520802756 41.0282464886875 115.61154292687226 29.98651255843919 109.2 22.6 C 103.34425377322002 15.853801224373358 95.7153038280875 10.784702286919629 87.6 7.4 C 79.10334759560325 3.8562461944076984 68.0245867551807 2.043492673889674 59.1 2.3 C 51.104865325061844 2.52979334210291 43.417272327108016 4.549376623319327 36.5 7.7 C 29.58420148492957 10.849952096667552 22.75175532368096 15.442954390792838 17.6 21.2 C 12.209558445250325 27.223775574474708 7.682732045089943 36.58658177380803 5.2 43.4 C 3.3016818803485517 48.609597749834926 2.803841412881239 53.34168405640357 2.4 58 C 2.035636279287732 62.202940251601255 2.6 70.1 2.6 70.1 C 2.6 70.1 2.6 70.1 2.6 70.1 C 2.6 70.1 2.6 70.1 2.6 70.1"
    bx:d="M 2.6 70.1 R 50.6 54.5 R 50.2 32.3 R 46.3 25.9 R 46.9 20.8 R 52.5 19 R 59.5 24.3 R 63 32.7 R 65 43 R 66.3 43.8 R 68.5 41.5 R 76.3 38.1 R 82.9 39.1 R 86.6 42.8 R 85.4 47.7 R 84.1 51 R 84.1 51 R 84.1 51 R 88 53.9 R 91.1 59 R 89.3 63.1 R 89.3 63.1 R 89.3 63.1 R 92.5 67 R 94 70.7 R 91.7 76.3 R 91.7 76.3 R 91.7 76.3 R 94 79.8 R 94.4 84.3 R 91.5 88 R 83.5 92.3 R 72.4 92.9 R 63.2 92.5 R 60.5 92.1 R 55.4 93.3 R 27.6 99.1 R 16.3 101.7 R 28.9 114.1 R 50.2 122.9 R 73 123.7 R 94.4 115.9 R 111.6 100.7 R 122.1 80 R 123.6 50.8 R 109.2 22.6 R 87.6 7.4 R 59.1 2.3 R 36.5 7.7 R 17.6 21.2 R 5.2 43.4 R 2.4 58 R 2.6 70.1 R 2.6 70.1 Z 1@77acfd42">
  </path>
</svg>
